<svg xmlns="http://www.w3.org/2000/svg" viewBox="0 0 25.86 9.01"><defs><style>.cls-1{fill:#fff;}.cls-2{fill:none;stroke:#fff;stroke-miterlimit:10;}</style></defs><title>Asset 2</title><g id="Layer_2" data-name="Layer 2"><g id="OBJECTS"><path class="cls-1" d="M9.89,0,7.19,6.69A3.11,3.11,0,0,1,4,9a3.47,3.47,0,0,1-2-.59l.9-1.86a1.74,1.74,0,0,0,1,.35.79.79,0,0,0,.67-.27L1.81,0H4.59L5.94,3.51,7.32,0Z"/><path class="cls-1" d="M17.48,0V6.56H14.91V5.94a2.58,2.58,0,0,1-1.86.74c-1.57,0-2.76-.92-2.76-3.06V0H13V3.15c0,.94.32,1.25.85,1.25s.92-.35.92-1.32V0Z"/><path class="cls-1" d="M25.86,0V6.56H23.28V5.94a2.55,2.55,0,0,1-1.86.74c-1.57,0-2.76-.92-2.76-3.06V0h2.71V3.15c0,.94.33,1.25.86,1.25s.92-.35.92-1.32V0Z"/><line class="cls-2" x1="0.46" y1="0.91" x2="3.67" y2="8.21"/></g></g></svg>